<?xml version="1.0" encoding="UTF-8"?><svg id="Layer_1" xmlns="http://www.w3.org/2000/svg" viewBox="0 0 1049.07 398.14"><defs><style>.cls-1{fill:#646cff;}</style></defs><path class="cls-1" d="M21.32,378.82l6.84-45.29h13.94v63.79h-9.48v-45.75l-6.92,45.75h-9.48l-7.47-45.11v45.11H0v-63.79h13.94l7.38,45.29h0Z"/><path class="cls-1" d="M64.43,333.53v49.21c0,4.56,2,6.2,5.19,6.2s5.19-1.64,5.19-6.2v-49.21h9.48v48.57c0,10.21-5.1,16.04-14.95,16.04s-14.94-5.83-14.94-16.04v-48.57h10.03Z"/><path class="cls-1" d="M117.56,397.32c-.55-1.64-.91-2.64-.91-7.84v-10.03c0-5.92-2-8.11-6.56-8.11h-3.46v25.97h-10.02v-63.79h15.13c10.39,0,14.85,4.83,14.85,14.67v5.01c0,6.56-2.1,10.85-6.56,12.94,5.01,2.1,6.65,6.93,6.65,13.58v9.84c0,3.1.09,5.38,1.09,7.75h-10.21ZM106.63,342.64v19.59h3.92c3.74,0,6.02-1.64,6.02-6.74v-6.29c0-4.56-1.55-6.56-5.1-6.56h-4.84Z"/><path class="cls-1" d="M159.67,397.32c-.55-1.64-.91-2.64-.91-7.84v-10.03c0-5.92-2.01-8.11-6.56-8.11h-3.46v25.97h-10.02v-63.79h15.13c10.39,0,14.86,4.83,14.86,14.67v5.01c0,6.56-2.1,10.85-6.56,12.94,5.01,2.1,6.65,6.93,6.65,13.58v9.84c0,3.1.09,5.38,1.09,7.75h-10.22ZM148.73,342.64v19.59h3.92c3.74,0,6.02-1.64,6.02-6.74v-6.29c0-4.56-1.55-6.56-5.1-6.56h-4.84Z"/><path class="cls-1" d="M213.26,397.32h-10.12l-1.73-11.57h-12.3l-1.73,11.57h-9.2l10.21-63.79h14.67l10.21,63.79h-.01ZM190.38,377.09h9.66l-4.83-32.26-4.83,32.26h0Z"/><path class="cls-1" d="M232.76,376.18l-12.67-42.65h10.48l7.66,29.07,7.65-29.07h9.57l-12.67,42.65v21.14h-10.02v-21.14Z"/><path class="cls-1" d="M294.55,397.32h-10.02v-63.79h10.02v27.34h11.39v-27.34h10.21v63.79h-10.21v-27.34h-11.39v27.34Z"/><path class="cls-1" d="M328.91,333.53h10.02v63.79h-10.02v-63.79Z"/><path class="cls-1" d="M351.69,333.53h10.02v54.68h16.5v9.11h-26.52v-63.79Z"/><path class="cls-1" d="M388.05,333.53h10.02v54.68h16.5v9.11h-26.52v-63.79Z"/><path class="cls-1" d="M466.25,363.33l-3.65,33.99h-13.76l-7.11-63.79h9.75l5.38,50.31,4.83-50.31h9.66l5.01,50.67,5.19-50.67h8.75l-7.11,63.79h-13.31l-3.64-33.99h.01Z"/><path class="cls-1" d="M510.81,360.41h13.76v9.11h-13.76v18.68h17.32v9.11h-27.34v-63.79h27.34v9.11h-17.32v17.77h0Z"/><path class="cls-1" d="M569.78,348.2v2.28c0,6.56-2.01,10.75-6.47,12.85,5.38,2.1,7.47,6.93,7.47,13.67v5.19c0,9.84-5.19,15.13-15.22,15.13h-15.77v-63.79h15.13c10.39,0,14.86,4.83,14.86,14.67ZM549.82,342.64v16.86h3.92c3.74,0,6.02-1.64,6.02-6.74v-3.55c0-4.56-1.55-6.56-5.1-6.56h-4.84ZM549.82,368.61v19.59h5.74c3.37,0,5.19-1.55,5.19-6.29v-5.56c0-5.92-1.91-7.75-6.47-7.75h-4.47.01Z"/><path class="cls-1" d="M601.86,333.53h15.86c10.03,0,14.95,5.56,14.95,15.77v32.26c0,10.21-4.92,15.77-14.95,15.77h-15.86v-63.79h0ZM611.88,342.64v45.57h5.65c3.19,0,5.1-1.64,5.1-6.2v-33.17c0-4.56-1.91-6.2-5.1-6.2h-5.65Z"/><path class="cls-1" d="M654.54,360.41h13.76v9.11h-13.76v18.68h17.32v9.11h-27.34v-63.79h27.34v9.11h-17.32v17.77h0Z"/><path class="cls-1" d="M698.64,385.57l7.66-52.04h9.2l-9.84,63.79h-14.95l-9.84-63.79h10.12l7.65,52.04h0Z"/><path class="cls-1" d="M735.65,360.41h13.76v9.11h-13.76v18.68h17.32v9.11h-27.34v-63.79h27.34v9.11h-17.32v17.77h0Z"/><path class="cls-1" d="M764.63,333.53h10.02v54.68h16.5v9.11h-26.52v-63.79Z"/><path class="cls-1" d="M800.17,348.84c0-10.21,5.38-16.04,15.22-16.04s15.22,5.83,15.22,16.04v33.17c0,10.21-5.38,16.04-15.22,16.04s-15.22-5.83-15.22-16.04v-33.17ZM810.2,382.65c0,4.56,2.01,6.29,5.19,6.29s5.19-1.73,5.19-6.29v-34.45c0-4.56-2.01-6.29-5.19-6.29s-5.19,1.73-5.19,6.29v34.45Z"/><path class="cls-1" d="M872.26,349.29v8.29c0,10.21-4.92,15.77-14.95,15.77h-4.74v23.97h-10.02v-63.79h14.76c10.02,0,14.95,5.56,14.95,15.77h0ZM852.58,342.64v21.6h4.74c3.19,0,4.92-1.46,4.92-6.01v-9.57c0-4.56-1.73-6.02-4.92-6.02h-4.74Z"/><path class="cls-1" d="M904.07,378.82l6.84-45.29h13.94v63.79h-9.48v-45.75l-6.93,45.75h-9.48l-7.47-45.11v45.11h-8.75v-63.79h13.94l7.38,45.29h.01Z"/><path class="cls-1" d="M947.63,360.41h13.76v9.11h-13.76v18.68h17.32v9.11h-27.34v-63.79h27.34v9.11h-17.32v17.77h0Z"/><path class="cls-1" d="M985.54,351.12v46.21h-9.02v-63.79h12.58l10.3,38.18v-38.18h8.93v63.79h-10.3l-12.49-46.21Z"/><path class="cls-1" d="M1018.08,333.53h30.99v9.11h-10.48v54.68h-10.02v-54.68h-10.48v-9.11h-.01Z"/><path class="cls-1" d="M649.66,287.93h13.59c26.62,0,48.2-21.58,48.2-48.2v-55.14c0-9.15,3.69-17.36,9.68-23.37,6-5.99,14.22-9.68,23.37-9.68h0v-15.15h0c-9.15,0-17.36-3.69-23.37-9.68-5.99-6-9.68-14.22-9.68-23.37v-55.14C711.45,21.58,689.87,0,663.25,0h-13.59v15.15h13.59c9.15,0,17.36,3.69,23.37,9.68,5.99,6,9.68,14.22,9.68,23.37v55.14c0,26.62,21.58,48.2,48.2,48.2h0v-15.15h0c-26.63,0-48.2,21.58-48.2,48.2v55.14c0,9.15-3.69,17.36-9.68,23.37-6,5.99-14.22,9.68-23.37,9.68h-13.59v15.15h0Z"/><path class="cls-1" d="M399.4,0h-13.59C359.18,0,337.61,21.58,337.61,48.2v55.14c0,9.15-3.69,17.36-9.68,23.37-6,5.99-14.22,9.68-23.37,9.68v15.15c9.15,0,17.36,3.69,23.37,9.68,5.99,6,9.68,14.22,9.68,23.37v55.14c0,26.62,21.58,48.2,48.2,48.2h13.59v-15.15h-13.59c-9.15,0-17.36-3.69-23.37-9.68-5.99-6-9.68-14.22-9.68-23.37v-55.14c0-26.62-21.58-48.2-48.2-48.2v15.15c26.62,0,48.2-21.58,48.2-48.2v-55.14c0-9.15,3.69-17.36,9.68-23.37,6-5.99,14.22-9.68,23.37-9.68h13.59V0h0Z"/><polygon class="cls-1" points="676.97 178.62 655.52 178.62 535.58 58.67 465.83 128.42 453.33 115.92 390.63 178.62 369.19 178.62 453.33 94.51 465.83 106.98 535.58 37.23 676.97 178.62"/><rect class="cls-1" x="406.2" y="196.94" width="236.66" height="15.15"/><rect class="cls-1" x="455.33" y="232.4" width="138.39" height="15.15"/><rect class="cls-1" x="594.67" y="144.46" width="7.58" height="21.49" transform="translate(65.54 468.63) rotate(-45)"/><rect class="cls-1" x="555.15" y="83.78" width="7.58" height="63.84" transform="translate(81.89 429.12) rotate(-45)"/></svg>