<?xml version="1.0" encoding="UTF-8"?><svg id="Layer_1" xmlns="http://www.w3.org/2000/svg" viewBox="0 0 439.94 287.93"><defs><style>.cls-1{fill:#646cff;}</style></defs><path class="cls-1" d="M345.1,287.93h13.59c26.62,0,48.2-21.58,48.2-48.2v-55.14c0-9.15,3.69-17.36,9.68-23.37,6-5.99,14.22-9.68,23.37-9.68h0v-15.15h0c-9.15,0-17.36-3.69-23.37-9.68-5.99-6-9.68-14.22-9.68-23.37v-55.14c0-26.62-21.58-48.2-48.2-48.2h-13.59v15.15h13.59c9.15,0,17.36,3.69,23.37,9.68,5.99,6,9.68,14.22,9.68,23.37v55.14c0,26.62,21.58,48.2,48.2,48.2h0v-15.15h0c-26.63,0-48.2,21.58-48.2,48.2v55.14c0,9.15-3.69,17.36-9.68,23.37-6,5.99-14.22,9.68-23.37,9.68h-13.59v15.15h0Z"/><path class="cls-1" d="M94.84,0h-13.59c-26.63,0-48.2,21.58-48.2,48.2v55.14c0,9.15-3.69,17.36-9.68,23.37-6,5.99-14.22,9.68-23.37,9.68v15.15c9.15,0,17.36,3.69,23.37,9.68,5.99,6,9.68,14.22,9.68,23.37v55.14c0,26.62,21.58,48.2,48.2,48.2h13.59v-15.15h-13.59c-9.15,0-17.36-3.69-23.37-9.68-5.99-6-9.68-14.22-9.68-23.37v-55.14c0-26.62-21.58-48.2-48.2-48.2v15.15c26.62,0,48.2-21.58,48.2-48.2v-55.14c0-9.15,3.69-17.36,9.68-23.37,6-5.99,14.22-9.68,23.37-9.68h13.59V0h0Z"/><polygon class="cls-1" points="372.41 178.62 350.96 178.62 231.02 58.67 161.27 128.42 148.77 115.92 86.07 178.62 64.63 178.62 148.77 94.51 161.27 106.98 231.02 37.23 372.41 178.62"/><rect class="cls-1" x="101.64" y="196.94" width="236.66" height="15.15"/><rect class="cls-1" x="150.77" y="232.4" width="138.39" height="15.15"/><rect class="cls-1" x="290.12" y="144.46" width="7.58" height="21.49" transform="translate(-23.66 253.28) rotate(-45)"/><rect class="cls-1" x="250.58" y="83.79" width="7.58" height="63.84" transform="translate(-7.31 213.76) rotate(-45)"/></svg>